<svg width="126" height="24" viewBox="0 0 126 24" fill="none" xmlns="http://www.w3.org/2000/svg">
<rect width="24" height="24" rx="12" fill="url(#paint0_linear_8125_251)"/>
<path d="M6 16.4L9.78 8H11.316L15.108 16.4H13.476L10.224 8.828H10.848L7.608 16.4H6ZM7.74 14.456L8.16 13.232H12.696L13.116 14.456H7.74Z" fill="white"/>
<path d="M16.1763 16.4V8H17.7363V16.4H16.1763Z" fill="white"/>
<circle cx="22.5" cy="1.5" r="1.5" fill="url(#paint1_linear_8125_251)"/>
<path d="M42.072 17.228L42.6 20.108C41.952 20.42 40.416 20.804 38.472 20.804C32.88 20.804 30 17.3 30 12.692C30 7.172 33.936 4.124 38.832 4.124C40.728 4.124 42.168 4.484 42.816 4.844L42.048 7.724C41.328 7.412 40.296 7.124 38.976 7.124C36.096 7.124 33.84 8.876 33.84 12.476C33.84 15.716 35.76 17.756 39 17.756C40.128 17.756 41.328 17.54 42.072 17.228Z" fill="white"/>
<path d="M45.0671 20.54V3.5H48.7151V10.22H48.7631C49.1471 9.692 49.6271 9.284 50.2031 8.996C50.7551 8.708 51.4271 8.54 52.0991 8.54C54.4271 8.54 56.2031 10.148 56.2031 13.7V20.54H52.5551V14.084C52.5551 12.548 52.0271 11.492 50.6591 11.492C49.6991 11.492 49.0991 12.116 48.8351 12.788C48.7391 13.004 48.7151 13.316 48.7151 13.58V20.54H45.0671Z" fill="white"/>
<path d="M69.1376 13.604V17.708C69.1376 18.812 69.1856 19.892 69.3296 20.54H66.0416L65.8256 19.364H65.7536C64.9856 20.3 63.7856 20.804 62.3936 20.804C60.0176 20.804 58.6016 19.076 58.6016 17.204C58.6016 14.156 61.3376 12.716 65.4896 12.716V12.572C65.4896 11.924 65.1536 11.036 63.3536 11.036C62.1536 11.036 60.8816 11.444 60.1136 11.924L59.4416 9.572C60.2576 9.116 61.8656 8.516 64.0016 8.516C67.9136 8.516 69.1376 10.82 69.1376 13.604ZM65.6096 16.268V14.996C63.6896 14.996 62.2016 15.452 62.2016 16.844C62.2016 17.78 62.8256 18.236 63.6416 18.236C64.5296 18.236 65.2976 17.636 65.5376 16.892C65.5856 16.7 65.6096 16.484 65.6096 16.268Z" fill="white"/>
<path d="M72.6058 6.62L76.1818 5.636V8.804H78.7978V11.492H76.1818V15.74C76.1818 17.156 76.5418 17.804 77.6218 17.804C78.1258 17.804 78.3658 17.78 78.7018 17.708L78.7258 20.468C78.2698 20.636 77.3818 20.78 76.3738 20.78C75.1978 20.78 74.2138 20.372 73.6138 19.772C72.9418 19.076 72.6058 17.948 72.6058 16.292V11.492H71.0458V8.804H72.6058V6.62Z" fill="white"/>
<path d="M95.6251 11.4369V19.9569C94.4971 20.3409 92.3611 20.8689 90.2251 20.8689C87.2731 20.8689 85.1371 20.1249 83.6491 18.7089C82.1851 17.2929 81.3691 15.1809 81.3691 12.8049C81.3931 7.42893 85.3051 4.35693 90.6091 4.35693C92.6971 4.35693 94.3051 4.76493 95.0971 5.12493L94.3291 8.07693C93.4411 7.66893 92.3611 7.38093 90.5851 7.38093C87.5371 7.38093 85.2091 9.08493 85.2091 12.6129C85.2091 15.9729 87.3211 17.9169 90.3211 17.9169C91.1371 17.9169 91.8091 17.8209 92.0971 17.7009V14.2929H89.6011V11.4369H95.6251Z" fill="white"/>
<path d="M98.7125 20.7009V4.74093C99.8405 4.54893 101.425 4.40493 103.657 4.40493C105.913 4.40493 107.521 4.83693 108.601 5.70093C109.657 6.51693 110.329 7.86093 110.329 9.44493C110.329 11.0289 109.825 12.3969 108.841 13.2849C107.593 14.4369 105.745 14.9889 103.585 14.9889C103.105 14.9889 102.673 14.9649 102.337 14.8929V20.7009H98.7125ZM102.337 7.30893V12.0849C102.649 12.1569 103.009 12.1809 103.561 12.1809C105.505 12.1809 106.705 11.1969 106.705 9.56493C106.705 8.07693 105.673 7.18893 103.825 7.18893C103.105 7.18893 102.601 7.23693 102.337 7.30893Z" fill="white"/>
<path d="M116.042 20.7009V7.59693H111.674V4.52493H124.106V7.59693H119.69V20.7009H116.042Z" fill="white"/>
<defs>
<linearGradient id="paint0_linear_8125_251" x1="-0.00683834" y1="24.0286" x2="28.893" y2="13.734" gradientUnits="userSpaceOnUse">
<stop stop-color="#FF7A00"/>
<stop offset="0.5" stop-color="#F00679"/>
<stop offset="1" stop-color="#D300C5"/>
</linearGradient>
<linearGradient id="paint1_linear_8125_251" x1="20.9991" y1="3.00358" x2="24.6116" y2="1.71676" gradientUnits="userSpaceOnUse">
<stop stop-color="#FF7A00"/>
<stop offset="0.5" stop-color="#F00679"/>
<stop offset="1" stop-color="#D300C5"/>
</linearGradient>
</defs>
</svg>
